<svg width="173" height="77" viewBox="0 0 173 77" fill="none" xmlns="http://www.w3.org/2000/svg">
<g clip-path="url(#clip0_2001_41)">
<path d="M88.5017 23.957H90.3924L94.8376 34.108H94.9952L99.4404 23.957H101.331V36.1787H99.8456V26.8943H99.7218L95.6366 36.1787H94.2074L90.111 26.8943H89.9872V36.1787H88.5017V23.957Z" fill="white"/>
<path d="M104.944 36.1787H103.278L108.083 23.957H109.715L114.521 36.1787H112.855L111.538 32.7125H106.249L104.932 36.1787H104.944ZM106.756 31.4071H111.054L108.961 25.8927H108.86L106.767 31.4071H106.756Z" fill="white"/>
<path d="M120.305 36.1787H116.265V23.957H120.485C121.757 23.957 122.837 24.2046 123.749 24.6885C124.649 25.1724 125.347 25.8702 125.831 26.7817C126.315 27.6933 126.551 28.7737 126.551 30.0453C126.551 31.317 126.303 32.4199 125.819 33.3315C125.335 34.243 124.626 34.952 123.704 35.4472C122.77 35.9424 121.644 36.1787 120.316 36.1787H120.305ZM117.852 34.8732H120.204C121.824 34.8732 123.028 34.4456 123.827 33.5791C124.615 32.7125 125.009 31.5421 125.009 30.0453C125.009 28.5486 124.626 27.4007 123.85 26.5454C123.073 25.6901 121.926 25.2737 120.384 25.2737H117.852V34.8732Z" fill="white"/>
<path d="M128.88 36.1787V23.957H136.781V25.2737H130.467V29.4039H136.375V30.7206H130.467V34.8732H136.882V36.1899H128.88V36.1787Z" fill="white"/>
<path d="M145.57 23.957V36.1787H143.983V23.957H145.57Z" fill="white"/>
<path d="M158.861 23.957V36.1787H157.33L150.195 26.5792H150.071V36.1787H148.485V23.957H150.015L157.173 33.5791H157.296V23.957H158.861Z" fill="white"/>
<path d="M89.0645 53.3296V41.1079H97.8875V43.2349H91.8329V46.1496H97.4373V48.2766H91.8329V51.1913H97.91V53.3183H89.0645V53.3296Z" fill="white"/>
<path d="M107.87 41.1079H110.616V49.1882C110.616 50.111 110.379 50.8987 109.918 51.5402C109.456 52.1817 108.815 52.6768 107.993 53.0032C107.183 53.3408 106.238 53.5096 105.18 53.5096C104.122 53.5096 103.188 53.3408 102.367 53.0032C101.545 52.6768 100.904 52.1817 100.442 51.5402C99.9807 50.8987 99.7444 50.111 99.7444 49.1882V41.1079H102.513V49.0981C102.513 49.7508 102.76 50.2685 103.267 50.6399C103.773 51.0113 104.403 51.2026 105.169 51.2026C105.934 51.2026 106.587 51.0113 107.093 50.6399C107.6 50.2685 107.847 49.7508 107.847 49.0981V41.1079H107.87Z" fill="white"/>
<path d="M112.877 53.3296V41.1079H118.043C119.528 41.1079 120.688 41.468 121.509 42.1883C122.331 42.9085 122.736 43.8764 122.736 45.0918C122.736 45.9245 122.533 46.6448 122.139 47.23C121.745 47.8152 121.172 48.2653 120.429 48.5692L123.208 53.3183H120.159L117.672 48.9856H115.657V53.3183H112.889L112.877 53.3296ZM115.646 46.9261H117.525C119.101 46.9261 119.889 46.3184 119.889 45.103C119.889 43.8876 119.101 43.2236 117.514 43.2236H115.646V46.9261Z" fill="white"/>
<path d="M136.353 47.2186C136.353 48.5578 136.083 49.6832 135.543 50.6173C135.003 51.5513 134.271 52.2603 133.348 52.7555C132.425 53.2507 131.379 53.487 130.22 53.487C129.061 53.487 128.014 53.2394 127.091 52.7442C126.168 52.2491 125.437 51.5401 124.897 50.5948C124.356 49.6607 124.098 48.5241 124.098 47.1961C124.098 45.8682 124.368 44.7315 124.897 43.7975C125.437 42.8634 126.168 42.1544 127.091 41.6592C128.014 41.1641 129.061 40.9277 130.22 40.9277C131.379 40.9277 132.425 41.1753 133.348 41.6592C134.271 42.1544 135.003 42.8634 135.543 43.7975C136.083 44.7315 136.353 45.8682 136.353 47.1961V47.2186ZM133.551 47.2186C133.551 45.9244 133.247 44.9341 132.639 44.2476C132.032 43.5611 131.233 43.2235 130.22 43.2235C129.207 43.2235 128.408 43.5611 127.8 44.2476C127.192 44.9341 126.889 45.9244 126.889 47.2186C126.889 48.5128 127.192 49.5031 127.8 50.1896C128.408 50.8761 129.207 51.2137 130.22 51.2137C131.233 51.2137 132.032 50.8761 132.639 50.1896C133.247 49.5031 133.551 48.5128 133.551 47.2186Z" fill="white"/>
<path d="M138.244 53.3296V41.1079H143.409C144.4 41.1079 145.244 41.2767 145.953 41.6368C146.65 41.9857 147.179 42.4696 147.551 43.0998C147.922 43.7188 148.102 44.439 148.102 45.2493C148.102 46.0596 147.911 46.7798 147.539 47.3988C147.168 48.0178 146.628 48.5017 145.908 48.8505C145.199 49.1994 144.343 49.3682 143.33 49.3682H141.001V53.3296H138.232H138.244ZM141.012 47.2975H142.892C143.679 47.2975 144.276 47.1062 144.67 46.7236C145.063 46.3409 145.255 45.857 145.255 45.2493C145.255 44.6416 145.063 44.1464 144.67 43.7751C144.276 43.4037 143.679 43.2124 142.88 43.2124H141.012V47.2863V47.2975Z" fill="white"/>
<path d="M149.542 53.3296V41.1079H158.365V43.2349H152.311V46.1496H157.915V48.2766H152.311V51.1913H158.388V53.3183H149.542V53.3296Z" fill="white"/>
<path d="M170.981 14.2675C171.555 14.2675 172.028 13.8061 172.028 13.2209C172.028 12.6357 171.566 12.1743 170.981 12.1743H66.7368C67.367 12.8495 67.9747 13.536 68.5599 14.2563H170.981V14.2675Z" fill="white"/>
<path d="M171.397 63.7393H68.9764C68.3912 64.4595 67.7835 65.146 67.1533 65.8212H171.397C171.971 65.8212 172.444 65.3598 172.444 64.7746C172.444 64.1894 171.983 63.728 171.397 63.728V63.7393Z" fill="white"/>
<path d="M38.3582 76.543C59.2413 76.43 76.0789 59.4093 75.9659 38.5262C75.8529 17.643 58.8322 0.805471 37.949 0.918461C17.0659 1.03145 0.228315 18.0522 0.341305 38.9353C0.454295 59.8185 17.475 76.656 38.3582 76.543Z" fill="#003399"/>
<path d="M39.7613 11.004L42.0796 9.22592H39.1648L38.152 6.24365L37.1279 9.22592H34.2131L36.5314 11.004L35.3948 14.3464L38.152 12.2307L40.8979 14.3464L39.7613 11.004Z" fill="#FFCC00"/>
<path d="M25.7503 14.7628L28.0573 12.9847H25.1426L24.1298 10.0024L23.1169 12.9847H20.1909L22.5092 14.7628L21.3726 18.0939L24.1298 15.9895L26.8757 18.0939L25.7503 14.7628Z" fill="#FFCC00"/>
<path d="M15.4869 25.0265L17.7939 23.2484H14.8792L13.8663 20.2661L12.8535 23.2484H9.92749L12.2458 25.0265L11.1091 28.3576L13.8663 26.2531L16.6123 28.3576L15.4869 25.0265Z" fill="#FFCC00"/>
<path d="M11.7281 39.0485L14.0351 37.2704H11.1204L10.1075 34.2769L9.0947 37.2704H6.1687L8.48699 39.0485L7.35035 42.3796L10.1075 40.2751L12.8647 42.3796L11.7281 39.0485Z" fill="#FFCC00"/>
<path d="M15.4869 53.0597L17.7939 51.2928H14.8792L13.8663 48.2993L12.8535 51.2928H9.92749L12.2458 53.0597L11.1091 56.4021L13.8663 54.2976L16.6123 56.4021L15.4869 53.0597Z" fill="#FFCC00"/>
<path d="M25.7503 63.3229L28.0573 61.556H25.1426L24.1298 58.5625L23.1169 61.556H20.1909L22.5092 63.3229L21.3726 66.6652L24.1298 64.5608L26.8757 66.6652L25.7503 63.3229Z" fill="#FFCC00"/>
<path d="M39.7613 67.0817L42.0796 65.3148H39.1648L38.152 62.3213L37.1279 65.3148H34.2131L36.5314 67.0817L35.3948 70.424L38.152 68.3196L40.8979 70.424L39.7613 67.0817Z" fill="#FFCC00"/>
<path d="M53.7837 63.3229L56.102 61.556H53.1873L52.1744 58.5625L51.1503 61.556H48.2356L50.5539 63.3229L49.4172 66.6652L52.1744 64.5608L54.9204 66.6652L53.7837 63.3229Z" fill="#FFCC00"/>
<path d="M64.0472 53.0597L66.3654 51.2928H63.4507L62.4379 48.2993L61.4138 51.2928H58.499L60.8173 53.0597L59.6807 56.4021L62.4379 54.2976L65.1838 56.4021L64.0472 53.0597Z" fill="#FFCC00"/>
<path d="M67.8059 39.0485L70.1242 37.2704H67.2095L66.1967 34.2769L65.1726 37.2704H62.2578L64.5761 39.0485L63.4395 42.3796L66.1967 40.2751L68.9426 42.3796L67.8059 39.0485Z" fill="#FFCC00"/>
<path d="M64.0472 25.0265L66.3654 23.2484H63.4507L62.4379 20.2661L61.4138 23.2484H58.499L60.8173 25.0265L59.6807 28.3576L62.4379 26.2531L65.1838 28.3576L64.0472 25.0265Z" fill="#FFCC00"/>
<path d="M53.7837 14.7628L56.102 12.9847H53.1873L52.1744 10.0024L51.1503 12.9847H48.2356L50.5539 14.7628L49.4172 18.0939L52.1744 15.9895L54.9204 18.0939L53.7837 14.7628Z" fill="#FFCC00"/>
<path d="M26.6846 45.024V32.2622H35.9015V34.4905H29.5768V37.529H35.4288V39.7573H29.5768V42.807H35.924V45.0353H26.6846V45.024Z" fill="white"/>
<path d="M46.7502 32.2622H49.62V40.7026C49.62 41.6704 49.3724 42.4807 48.8885 43.1559C48.4045 43.8311 47.7406 44.3376 46.8853 44.6864C46.03 45.0353 45.0509 45.2154 43.948 45.2154C42.8452 45.2154 41.8661 45.0465 41.0108 44.6864C40.1555 44.3376 39.4915 43.8311 39.0076 43.1559C38.5237 42.4807 38.2874 41.6704 38.2874 40.7026V32.2622H41.1796V40.6125C41.1796 41.2878 41.4384 41.828 41.9674 42.2218C42.4963 42.6157 43.1603 42.807 43.948 42.807C44.7358 42.807 45.4223 42.6045 45.9512 42.2218C46.4801 41.828 46.739 41.299 46.739 40.6125V32.2622H46.7502Z" fill="white"/>
</g>
<defs>
<clipPath id="clip0_2001_41">
<rect width="172.105" height="75.6257" fill="white" transform="translate(0.339355 0.92041)"/>
</clipPath>
</defs>
</svg>
