<svg width="58" height="89" viewBox="0 0 58 89" fill="none" xmlns="http://www.w3.org/2000/svg">
    <path d="M49.541 89c4.313 0 7.822-3.51 7.822-7.822V7.822C57.363 3.51 53.854 0 49.541 0H7.822C3.51 0 0 3.51 0 7.822v73.356C0 85.49 3.51 89 7.822 89h41.719zM5.215 7.822a2.61 2.61 0 0 1 2.607-2.607h41.719a2.61 2.61 0 0 1 2.607 2.607v2.608H5.215V7.822zm0 7.823h46.933v57.71H5.215v-57.71zm0 65.533V78.57h46.933v2.608a2.61 2.61 0 0 1-2.607 2.607H7.822a2.61 2.61 0 0 1-2.607-2.607z" fill="#000"/>
    <path d="M28.682 21.033c-10.065 0-18.252 8.188-18.252 18.252 0 10.048 8.172 18.252 18.252 18.252 10.083 0 18.252-8.207 18.252-18.252 0-10.064-8.188-18.252-18.252-18.252zm0 31.29c-2.367 0-4.586-.638-6.501-1.744a7.84 7.84 0 0 1 6.5-3.472c2.647 0 5.071 1.34 6.501 3.472a12.952 12.952 0 0 1-6.5 1.743zm-2.608-13.038a2.61 2.61 0 0 1 2.608-2.607 2.61 2.61 0 0 1 2.607 2.607 2.61 2.61 0 0 1-2.607 2.608 2.61 2.61 0 0 1-2.608-2.608zm13.033 7.818a13.085 13.085 0 0 0-3.927-3.469 7.775 7.775 0 0 0 1.324-4.349c0-4.313-3.51-7.822-7.822-7.822-4.313 0-7.823 3.509-7.823 7.822 0 1.609.489 3.105 1.324 4.35a13.086 13.086 0 0 0-3.927 3.468 12.966 12.966 0 0 1-2.611-7.818c0-7.189 5.848-13.037 13.037-13.037 7.188 0 13.037 5.848 13.037 13.037 0 2.93-.973 5.639-2.612 7.818z" fill="#9571F6"/>
    <path d="M31.29 65.36a2.607 2.607 0 1 1-5.215 0 2.607 2.607 0 0 1 5.214 0zM41.719 65.36a2.607 2.607 0 1 1-5.215 0 2.607 2.607 0 0 1 5.215 0zM20.86 65.36a2.607 2.607 0 1 1-5.215 0 2.607 2.607 0 0 1 5.214 0z" fill="#000"/>
</svg>
