<svg width="75" height="75" viewBox="0 0 75 75" fill="none" xmlns="http://www.w3.org/2000/svg">
    <path d="M24.555 22.058C11.015 22.058 0 33.075 0 46.614A24.634 24.634 0 0 0 6.654 63.42L5.556 67.6a2.93 2.93 0 0 0 3.397 3.619l7.408-1.451a24.456 24.456 0 0 0 8.194 1.4c13.54 0 24.555-11.014 24.555-24.554S38.094 22.058 24.555 22.058zm0 43.25c-2.373 0-4.683-.437-6.868-1.3a2.929 2.929 0 0 0-1.64-.15l-3.638.712.34-1.295a2.93 2.93 0 0 0-.85-2.9 18.75 18.75 0 0 1-6.04-13.762c0-10.309 8.387-18.695 18.696-18.695 10.308 0 18.695 8.386 18.695 18.695 0 10.309-8.387 18.696-18.695 18.696z" fill="#000"/>
    <path d="M30.09 38.584H19.02a2.93 2.93 0 1 0 0 5.86h11.07a2.93 2.93 0 1 0 0-5.86zM30.09 48.888H19.02a2.93 2.93 0 1 0 0 5.86h11.07a2.93 2.93 0 1 0 0-5.86z" fill="#9571F6"/>
    <path d="M72.07 39.735a2.93 2.93 0 0 0-2.93 2.93v.05c0 3.176-2.582 5.804-5.756 5.858a2.93 2.93 0 0 0-2.861 2.602l-1.608-1.01A2.93 2.93 0 0 0 55.8 55.13l6.282 3.942a2.93 2.93 0 0 0 4.485-2.6l-.1-2.474a11.66 11.66 0 0 0 5.167-3.063A11.65 11.65 0 0 0 75 42.715v-.05a2.93 2.93 0 0 0-2.93-2.93zM63.281 3.727H27.788c-5.558 0-10.389 3.95-11.487 9.392a2.93 2.93 0 0 0 5.744 1.16 5.872 5.872 0 0 1 5.743-4.692h35.493c3.231 0 5.86 2.628 5.86 5.86v12.57a2.93 2.93 0 0 0 5.859 0v-12.57c0-6.463-5.257-11.72-11.719-11.72z" fill="#000"/>
</svg>
