<svg width="79" height="83" viewBox="0 0 79 83" fill="none" xmlns="http://www.w3.org/2000/svg">
    <g clip-path="url(#9lumpm70ga)">
        <path d="M0 0v83h78.206V0H0zm74.055 78.85H4.149V4.15h69.906V78.85z" fill="#000"/>
        <path d="m28.72 19.738 1.844-7.302h4.362l-4.828 16.61h-4.2L23.684 18.43l-2.124 10.614h-4.291l-4.828-16.61h4.41l1.843 7.303.77 3.94.677-3.94 1.563-7.302h4.014l1.609 7.302.652 3.873.747-3.873h-.004zM40.524 22.328v3.032h9.003v3.685H36.161V12.438h13.132v3.615h-8.77v2.728h7.697v3.545h-7.698l.002.002zM28.743 61.269l1.843-7.302h4.362l-4.828 16.61h-4.2l-2.215-10.615-2.124 10.614H17.29l-4.828-16.61h4.41l1.843 7.303.77 3.94.677-3.94 1.563-7.302h4.013l1.61 7.302.652 3.873.747-3.873h-.004zM40.773 63.859v3.032h9.003v3.685H36.409v-16.61h13.133v3.616H40.77v2.728h7.698v3.545H40.77l.002.004zM62.792 61.503c.917.28 1.641.792 2.17 1.54.528.746.792 1.616.792 2.611 0 1.447-.512 2.628-1.539 3.545-1.057.919-2.464 1.377-4.221 1.377h-8.375v-16.61h8.329c1.555 0 2.806.381 3.755 1.144.948.762 1.423 1.773 1.423 3.032 0 1.712-.777 2.83-2.332 3.359l-.002.002zm-3.52-4.107h-3.29v2.938h3.22c1.18 0 1.773-.498 1.773-1.493 0-.434-.148-.785-.443-1.049-.296-.264-.714-.396-1.259-.396h-.002zM55.98 67.03h3.452c.7 0 1.237-.164 1.61-.49.372-.326.56-.77.56-1.33 0-.558-.18-.998-.536-1.316-.359-.318-.863-.479-1.518-.479h-3.568v3.615zM29.071 49.832h-4.596l-.932-2.847h-5.599l-.932 2.847H12.44l6.065-16.61H23.1l5.971 16.61zm-9.331-8.303-.747 2.262h3.523l-.747-2.262-1.026-3.475-1.003 3.475zM34.91 33.224v12.83h7.744v3.78H30.548v-16.61h4.362zM49.021 33.224v12.83h7.744v3.78H44.66v-16.61h4.361z" fill="#000"/>
        <path d="m65.756 12.446-10.508 16.61h-4.151l10.508-16.61h4.151z" fill="url(#jwfgyb0rnb)"/>
    </g>
    <defs>
        <linearGradient id="jwfgyb0rnb" x1="51.097" y1="20.75" x2="65.756" y2="20.75" gradientUnits="userSpaceOnUse">
            <stop stop-color="#E38DDD"/>
            <stop offset="1" stop-color="#9571F6"/>
        </linearGradient>
        <clipPath id="9lumpm70ga">
            <path fill="#fff" d="M0 0h78.206v83H0z"/>
        </clipPath>
    </defs>
</svg>
