<svg width="273" height="62" viewBox="0 0 273 62" fill="none" xmlns="http://www.w3.org/2000/svg">
    <g clip-path="url(#7n1gjb780a)" fill="#000">
        <path d="M132.739 60.616c-4.978 0-11.07-6.892-17.271-24.66L102.724 0H96.48L81.106 45.785l-.011.022c-.153.485-.316.98-.495 1.476l-1.065 3.177a14.893 14.893 0 0 1-5.495 7.415 14.8 14.8 0 0 1-7.907 2.741h-2v1.003h35.015v-1.003l-6.646.01 15.005-44.732 6.815 19.533c1.858 5.307 2.673 9.807 2.749 13.447.18 8.636-3.445 11.742-7.668 11.742h-.315l.022 1.003h24.091v-1.003h-.467.005zM60.286 10.173A14.888 14.888 0 0 1 74.4 0h5.668L62.824 51.44a14.888 14.888 0 0 1-14.113 10.173h-5.669l17.244-51.44zM10.277 61.619h5.669c6.396 0 12.075-4.098 14.113-10.173L47.31 0H41.64c-6.396 0-12.075 4.097-14.113 10.173l-17.244 51.44-.006.006zM.147 11.006l3.707 21.005L14.58 0H9.354C3.538 0-.869 5.263.147 11.006zM150.125 18.198v-1.901h10.689v1.901h-4.342v17.627h-1.951V18.198h-4.396zM171.977 21.38h1.951v7.481c0 4.866-2.196 7.318-6.321 7.318s-6.347-2.447-6.347-7.318v-7.48h1.951v7.044c0 1.526 0 2.774.407 3.646.68 1.47 2.169 2.31 3.989 2.31 1.332 0 2.495-.49 3.256-1.28 1.141-1.226 1.114-2.61 1.114-4.68v-7.046.005zM184.455 16.291h2.005l3.962 14.063 5.586-14.063h.408l5.505 14.063 4.044-14.063h1.978l-5.587 19.528h-.38l-5.75-14.77-5.913 14.77h-.353l-5.505-19.528zM210.66 28.747c.081 3.318 2.331 5.737 5.424 5.737 3.092 0 4.451-1.716 5.505-3.454l1.549.817c-1.468 2.883-3.718 4.326-6.864 4.326-4.777 0-7.516-3.672-7.516-7.535s2.902-7.644 7.407-7.644c4.098 0 7.407 2.964 7.462 7.753H210.66zm10.929-1.63c-.761-2.99-2.902-4.325-5.397-4.325-2.494 0-4.505 1.39-5.342 4.326h10.744-.005zM228.382 35.82h-1.842V15.8h1.842v8.053c1.576-1.901 3.527-2.855 5.777-2.855 4.207 0 7.408 3.509 7.408 7.617 0 4.108-3.256 7.59-7.462 7.59-2.331 0-4.261-1.035-5.723-3.046v2.665-.006zm11.288-7.258c0-3.128-2.467-5.874-5.695-5.874-2.957 0-5.723 2.201-5.723 5.82 0 3.345 2.467 5.9 5.723 5.9 3.255 0 5.695-2.746 5.695-5.846zM160.026 42.09l9.087 19.528h-2.087l-3.065-6.418h-8.408l-3.037 6.418h-2.169l9.223-19.527h.462-.006zm-.244 4.136-3.364 7.072h6.673l-3.309-7.072zM184.427 58.71c-1.413 2.146-3.853 3.263-6.755 3.263-4.75 0-7.923-3.427-7.923-7.454 0-4.244 3.309-7.726 8.054-7.726 2.766 0 5.287 1.144 6.619 3.373l-1.495.926c-1.277-1.684-3.038-2.501-5.206-2.501-3.663 0-6.076 2.692-6.076 5.792 0 3.1 2.386 5.9 6.103 5.9 2.087 0 3.826-.844 5.179-2.527l1.495.953h.005zM200.861 58.71c-1.413 2.146-3.853 3.263-6.755 3.263-4.75 0-7.923-3.427-7.923-7.454 0-4.244 3.309-7.726 8.059-7.726 2.766 0 5.288 1.144 6.619 3.373l-1.494.926c-1.277-1.684-3.038-2.501-5.206-2.501-3.663 0-6.076 2.692-6.076 5.792 0 3.1 2.385 5.9 6.103 5.9 2.087 0 3.826-.844 5.179-2.527l1.494.953zM204.525 54.546c.081 3.319 2.331 5.738 5.423 5.738 3.093 0 4.451-1.716 5.506-3.455l1.548.818c-1.467 2.882-3.717 4.326-6.863 4.326-4.772 0-7.516-3.672-7.516-7.536 0-3.863 2.902-7.644 7.407-7.644 4.098 0 7.407 2.964 7.462 7.753h-12.967zm10.929-1.629c-.761-2.991-2.902-4.326-5.397-4.326-2.494 0-4.505 1.39-5.342 4.326h10.744-.005zM220.062 58.6c.924 1.035 1.924 1.607 3.011 1.607 1.413 0 2.657-1.035 2.657-2.392 0-.844-.489-1.634-1.195-2.01-3.31-1.847-4.995-2.637-4.995-5.166 0-2.282 1.761-3.835 3.962-3.835 1.571 0 2.766.762 3.989 1.956l-1.195 1.226c-.87-.845-1.734-1.39-2.903-1.39-1.168 0-2.168.845-2.168 1.93 0 .735.462 1.552 1.114 1.928 3.31 1.929 5.152 2.664 5.152 5.274 0 2.256-1.734 4.272-4.342 4.272-1.603 0-3.228-.736-4.261-2.065l1.169-1.335h.005zM232.583 42.745c0 .844-.706 1.553-1.549 1.553-.842 0-1.521-.709-1.521-1.553 0-.845.706-1.526 1.521-1.526.816 0 1.549.681 1.549 1.526zm-2.445 4.43h1.842v14.444h-1.842V47.174zM237.453 61.619h-1.843V41.6h1.843v8.053c1.57-1.901 3.527-2.855 5.777-2.855 4.206 0 7.407 3.51 7.407 7.617 0 4.109-3.255 7.59-7.462 7.59-2.331 0-4.26-1.035-5.722-3.045v2.664-.005zm11.287-7.263c0-3.128-2.467-5.874-5.695-5.874-2.957 0-5.723 2.201-5.723 5.82 0 3.345 2.468 5.9 5.723 5.9s5.695-2.746 5.695-5.846zM253.468 41.6h1.843V61.62h-1.843V41.6zM260.033 54.546c.081 3.319 2.331 5.738 5.424 5.738 3.092 0 4.451-1.716 5.505-3.455l1.549.818c-1.468 2.882-3.718 4.326-6.864 4.326-4.777 0-7.516-3.672-7.516-7.536 0-3.863 2.902-7.644 7.407-7.644 4.098 0 7.407 2.964 7.462 7.753h-12.967zm10.934-1.629c-.761-2.991-2.902-4.326-5.396-4.326-2.495 0-4.505 1.39-5.342 4.326h10.744-.006z"/>
        <path d="M66.144 60.616c-.24.01-.473.016-.717.016h-1.283v-.016h2z"/>
        <path d="M66.144 60.616c-.24.01-.473.016-.717.016h-1.283v-.016h2z"/>
    </g>
    <defs>
        <clipPath id="7n1gjb780a">
            <path fill="#fff" d="M0 0h273v62H0z"/>
        </clipPath>
    </defs>
</svg>
