<svg width="127" height="117" viewBox="0 0 127 117" fill="none" xmlns="http://www.w3.org/2000/svg">
    <g clip-path="url(#a7sbe71wma)" fill="#fff">
        <path d="M126.554 57.304c-4.75 0-10.553-6.514-16.466-23.313L97.939 0H91.99L77.332 43.284l-.01.02c-.146.46-.302.93-.473 1.396l-1.013 3a14.131 14.131 0 0 1-5.238 7.01 14.211 14.211 0 0 1-7.54 2.594h-1.906v.945h33.384v-.945l-6.34.01 14.305-42.292 6.501 18.468c1.771 5.016 2.546 9.272 2.618 12.713.172 8.162-3.289 11.101-7.31 11.101h-.302l.021.945h22.966v-.945h-.447.006zM57.478 9.619C59.422 3.869 64.841 0 70.936 0h5.409l-16.44 48.636c-1.943 5.744-7.358 9.619-13.458 9.619h-5.409l16.44-48.636zM9.8 58.255h5.41c6.1 0 11.514-3.87 13.457-9.62L45.107 0h-5.41c-6.1 0-11.513 3.87-13.457 9.619L9.8 58.255zM.14 10.404 3.67 30.266 13.899 0H8.918C3.373 0-.826 4.98.14 10.404zM39.853 75.586V73.79h10.19v1.797h-4.136v16.66h-1.86v-16.66h-4.194zM60.617 78.598h1.86v7.072c0 4.602-2.094 6.917-6.028 6.917-3.933 0-6.053-2.315-6.053-6.917v-7.072h1.86v6.658c0 1.442 0 2.625.39 3.446.644 1.39 2.068 2.185 3.803 2.185 1.268 0 2.38-.465 3.102-1.209 1.086-1.157 1.06-2.469 1.06-4.422v-6.658h.006zM72.51 73.789h1.912L78.2 87.08l5.326-13.291h.39l5.247 13.291L93.02 73.79h1.886L89.579 92.25h-.364l-5.481-13.963-5.638 13.963h-.338L72.51 73.79zM97.425 85.566c.078 3.136 2.224 5.424 5.17 5.424 2.946 0 4.24-1.622 5.248-3.264l1.475.77c-1.397 2.727-3.543 4.086-6.541 4.086-4.552 0-7.166-3.472-7.166-7.124 0-3.652 2.77-7.227 7.062-7.227 3.907 0 7.061 2.805 7.113 7.33H97.425v.005zm10.423-1.544c-.722-2.826-2.77-4.086-5.144-4.086-2.375 0-4.292 1.312-5.097 4.086h10.241zM114.27 92.25h-1.756V73.33h1.756v7.609c1.502-1.798 3.362-2.702 5.508-2.702 4.006 0 7.061 3.317 7.061 7.201 0 3.885-3.102 7.175-7.113 7.175-2.224 0-4.058-.976-5.456-2.877v2.521-.005zm10.761-6.864c0-2.955-2.354-5.554-5.43-5.554-2.821 0-5.456 2.082-5.456 5.502 0 3.161 2.354 5.579 5.456 5.579 3.102 0 5.43-2.598 5.43-5.527zM19.651 98.176l8.662 18.463h-1.99l-2.92-6.07h-8.017l-2.895 6.07h-2.068l8.792-18.463h.442-.006zm-.233 3.911-3.206 6.684h6.36l-3.154-6.684zM42.846 113.885c-1.345 2.03-3.673 3.084-6.437 3.084-4.526 0-7.55-3.239-7.55-7.046 0-4.009 3.154-7.304 7.68-7.304 2.64 0 5.045 1.079 6.307 3.187l-1.423.873c-1.216-1.596-2.894-2.366-4.968-2.366-3.491 0-5.793 2.547-5.793 5.476s2.276 5.579 5.82 5.579c1.99 0 3.647-.796 4.94-2.392l1.424.899v.01zM58.46 113.885c-1.346 2.03-3.673 3.084-6.438 3.084-4.525 0-7.55-3.239-7.55-7.046 0-4.009 3.155-7.304 7.68-7.304 2.64 0 5.046 1.079 6.308 3.187l-1.424.873c-1.215-1.596-2.894-2.366-4.967-2.366-3.492 0-5.793 2.547-5.793 5.476s2.275 5.579 5.82 5.579c1.99 0 3.647-.796 4.94-2.392l1.424.899v.01zM61.895 109.954c.077 3.136 2.223 5.424 5.17 5.424 2.946 0 4.24-1.622 5.247-3.265l1.476.77c-1.398 2.728-3.544 4.086-6.542 4.086-4.551 0-7.165-3.471-7.165-7.123 0-3.653 2.77-7.227 7.061-7.227 3.908 0 7.062 2.805 7.114 7.33H61.895v.005zm10.423-1.544c-.723-2.826-2.77-4.087-5.144-4.087-2.375 0-4.292 1.312-5.098 4.087h10.242zM76.656 113.782c.879.976 1.835 1.519 2.869 1.519 1.346 0 2.535-.976 2.535-2.263 0-.795-.467-1.544-1.138-1.901-3.153-1.746-4.76-2.495-4.76-4.887 0-2.159 1.684-3.626 3.778-3.626 1.502 0 2.64.718 3.804 1.849l-1.138 1.158c-.826-.796-1.658-1.313-2.77-1.313-1.111 0-2.067.796-2.067 1.824 0 .692.441 1.467 1.06 1.823 3.153 1.824 4.915 2.521 4.915 4.991 0 2.133-1.658 4.034-4.136 4.034-1.528 0-3.076-.692-4.058-1.953l1.112-1.26-.006.005zM88.54 98.796c0 .795-.67 1.467-1.476 1.467-.805 0-1.45-.667-1.45-1.467 0-.801.67-1.442 1.45-1.442.78 0 1.476.641 1.476 1.442zm-2.328 4.189h1.756v13.653h-1.756v-13.653zM93.133 116.639h-1.757V97.716h1.757v7.61c1.501-1.798 3.362-2.702 5.507-2.702 4.007 0 7.062 3.316 7.062 7.201S102.6 117 98.588 117c-2.223 0-4.058-.976-5.455-2.877v2.521-.005zm10.761-6.866c0-2.955-2.354-5.553-5.43-5.553-2.822 0-5.456 2.082-5.456 5.502 0 3.161 2.354 5.579 5.456 5.579 3.102 0 5.43-2.599 5.43-5.528zM108.352 97.716h1.756v18.923h-1.756V97.716zM114.556 109.954c.078 3.136 2.224 5.424 5.17 5.424 2.946 0 4.24-1.622 5.248-3.265l1.476.77c-1.398 2.728-3.544 4.086-6.542 4.086-4.552 0-7.165-3.471-7.165-7.123 0-3.653 2.769-7.227 7.061-7.227 3.907 0 7.061 2.805 7.113 7.33h-12.361v.005zm10.423-1.544c-.722-2.826-2.769-4.087-5.144-4.087-2.374 0-4.292 1.312-5.097 4.087h10.241z"/>
    </g>
    <defs>
        <clipPath id="a7sbe71wma">
            <path fill="#fff" d="M0 0h127v117H0z"/>
        </clipPath>
    </defs>
</svg>
